<svg width="47" height="51" viewBox="0 0 47 51" fill="none" xmlns="http://www.w3.org/2000/svg">
<path d="M26.5237 34.4938C26.5237 28.6743 31.298 24.0187 37.1332 24.0187H41.0587C44.3476 24.0187 47 21.3735 47 18.0934H37.1332C36.2844 18.0934 35.4357 18.1992 34.693 18.305C32.8894 18.5166 32.3589 15.9772 34.0564 15.4481C35.0113 15.1307 36.0722 15.0249 37.1332 15.0249H41.0587C44.3476 15.0249 47 12.3797 47 9.09959H37.1332C36.0722 9.09959 35.1174 9.20541 34.1625 9.41702C32.465 9.73445 31.7223 7.30083 33.4199 6.66598C34.5869 6.24274 35.8601 5.92532 37.2393 5.92532H41.0587C44.3476 5.92532 47 3.28008 47 0H37.2393C28.1151 0 20.4763 7.30084 20.5824 16.2946C20.6885 22.2199 15.9142 26.9813 9.97291 26.9813H6.25959C2.97066 26.9813 0.318285 29.6266 0.318285 32.9067H9.86682C10.9278 32.9067 11.8826 32.8008 12.8375 32.5892C14.535 32.2718 15.2777 34.7054 13.5801 35.3403C12.4131 35.7635 11.14 36.0809 9.76072 36.0809H6.0474C2.75847 36.0809 0.106094 38.7261 0.106094 42.0062H9.65463C10.5034 42.0062 11.3521 41.9004 12.0948 41.7946C13.8984 41.583 14.4289 44.1224 12.7314 44.6515C11.7765 44.9689 10.7156 45.0747 9.65463 45.0747H5.94131C2.65237 45.0747 0 47.7199 0 51H9.54853C19.0971 51 26.5237 43.5934 26.5237 34.4938Z" fill="#201B21"/>
</svg>
